<svg xmlns="http://www.w3.org/2000/svg" width="800" height="470" viewBox="0 0 800 470"><rect width="100%" height="100%" fill="#080f1a"/><g font-family="Arial,sans-serif" fill="#edf6ff"><text x="24" y="32" font-size="20">Esteira - CI implementada; implantação e medições pendentes</text><rect x="25" y="65" width="230" height="65" rx="9" fill="#122a3a" stroke="#64e8e4"/><text x="38" y="92" font-size="15">Branch → PR / outra pessoa</text><text x="259" y="108" font-size="23">→</text><rect x="300" y="65" width="210" height="65" rx="9" fill="#122a3a" stroke="#64e8e4"/><text x="313" y="92" font-size="15">CI / segurança / testes</text><text x="514" y="108" font-size="23">→</text><rect x="555" y="65" width="220" height="65" rx="9" fill="#122a3a" stroke="#64e8e4"/><text x="568" y="92" font-size="15">Build / PDF / ZIP / hash</text><rect x="25" y="180" width="230" height="65" rx="9" fill="#122a3a" stroke="#64e8e4"/><text x="38" y="207" font-size="15">Smoke / promoção PRD</text><text x="263" y="222" font-size="23">←</text><rect x="300" y="180" width="210" height="65" rx="9" fill="#122a3a" stroke="#64e8e4"/><text x="313" y="207" font-size="15">Aprovação producao</text><text x="516" y="222" font-size="23">←</text><rect x="555" y="180" width="220" height="65" rx="9" fill="#122a3a" stroke="#64e8e4"/><text x="568" y="207" font-size="15">HML / regressão E2E</text><text x="650" y="160" font-size="23">↓</text><rect x="25" y="295" width="230" height="65" rx="9" fill="#122a3a" stroke="#64e8e4"/><text x="38" y="322" font-size="15">Rollback / sondas / Issues</text><text x="259" y="338" font-size="23">→</text><rect x="300" y="295" width="210" height="65" rx="9" fill="#122a3a" stroke="#64e8e4"/><text x="313" y="322" font-size="15">Painel / DORA / melhoria</text><text x="514" y="338" font-size="23">→</text><rect x="555" y="295" width="220" height="65" rx="9" fill="#122a3a" stroke="#64e8e4"/><text x="568" y="322" font-size="15">Triagem / pacote / AVA</text><text x="130" y="274" font-size="23">↓</text><text x="24" y="404" font-size="12">Planejado: mesmo artefato de HML a PRD; azul-verde em pasta imutável; recuperação medida.</text></g></svg>